<?xml version="1.0" encoding="UTF-8" standalone="no"?>
<svg
   xmlns:dc="http://purl.org/dc/elements/1.1/"
   xmlns:cc="http://creativecommons.org/ns#"
   xmlns:rdf="http://www.w3.org/1999/02/22-rdf-syntax-ns#"
   xmlns:svg="http://www.w3.org/2000/svg"
   xmlns="http://www.w3.org/2000/svg"
   xmlns:sodipodi="http://sodipodi.sourceforge.net/DTD/sodipodi-0.dtd"
   xmlns:inkscape="http://www.inkscape.org/namespaces/inkscape"
   id="svg2"
   viewBox="0 0 600 600"
   version="1.1"
   sodipodi:docname="poing vert.svg"
   inkscape:version="0.92.1 r15371"
   width="600"
   height="600">
  <title
     id="title4510">Low tech power</title>
  <defs
     id="defs12">
    <linearGradient
       id="linearGradient3478">
      <stop
         id="stop3480"
         style="stop-color:#000000;stop-opacity:0"
         offset="0" />
      <stop
         id="stop3486"
         style="stop-color:#000000;stop-opacity:0"
         offset=".66792" />
      <stop
         id="stop3482"
         style="stop-color:#000000;stop-opacity:.24561"
         offset="1" />
    </linearGradient>
    <clipPath
       id="clipPath5223"
       clipPathUnits="userSpaceOnUse">
      <path
         inkscape:connector-curvature="0"
         id="path5225"
         sodipodi:nodetypes="cccccccccc"
         style="fill:none;stroke:#000000;stroke-width:2"
         d="m 428.5,319.86 -4.78,-5.88 0.04,-6 1.51,-0.89 0.19,-60.29 c -13.25,1.75 -23.39,7.8 -30.04,19 l -32.05,53.82 -14.66,19.78 -3.61,8.22 35.27,0.11" />
    </clipPath>
    <clipPath
       id="clipPath5195"
       clipPathUnits="userSpaceOnUse">
      <path
         inkscape:connector-curvature="0"
         id="path5197"
         style="fill:none;stroke:#000000;stroke-width:2"
         d="m 508.97,308.78 c -1.13,10.2 -13.13,13.36 -21.88,13.25 -33.49,-0.12 -66.98,-0.24 -100.47,-0.34 6.31,36.53 13.16,75.73 -0.93,111.31 -10.14,25.47 -23.96,49.21 -35.29,74.16 -35.93,74.09 -72.71,147.71 -107.93,222.15 -6.55,18.9 9.12,41.07 28.94,41.53 13.69,1.08 27.79,-7.81 32.47,-20.53 -7.47,15.77 -28.78,23.16 -44.13,14.35 -16.33,-8.45 -22.34,-31.72 -11.28,-46.63 10,-15.17 33.62,-18.8 47.22,-6.15 9.43,7.97 13.84,21.59 10.06,33.59 43.16,-101.38 85.52,-203.16 129.2,-304.29 18.05,-35.52 54.23,-55.71 84.7,-79.24 9.57,-6.76 19.93,-14.87 21.17,-27.51 3.47,-22.42 -3.12,-45.6 -14.16,-65.15 -4.38,-7.23 -10.07,-13.9 -17.47,-18.12 -0.08,19.2 -0.15,38.41 -0.22,57.62 z m -77.53,30.84 c 7.19,0.88 16.19,-1.98 22.03,3.41 6.31,8.03 1.7,18.99 3.02,28.25 -0.2,10.47 1.11,21.31 -1.05,31.56 -4.36,8.78 -15.81,6.06 -23.69,6.04 -9.13,-0.41 -19.13,1.96 -27.75,-1.66 -8.16,-5.95 -4.03,-17.51 -4.81,-25.97 0.41,-11.79 -1.49,-24.05 1.15,-35.56 3.65,-7.69 13.1,-5.84 19.97,-5.89 3.71,-0.03 7.42,-0.14 11.13,-0.18 z" />
    </clipPath>
    <clipPath
       id="clipPath5106"
       clipPathUnits="userSpaceOnUse">
      <path
         inkscape:connector-curvature="0"
         id="path5108"
         sodipodi:nodetypes="csszz"
         style="fill:none;stroke:#000000;stroke-width:1px"
         d="M 87.043,306.39 C 73.125,334.73 -14.977,520.54 -18.017,526.6 -33.165,556.91 10.272,584.18 29.465,540.74 48.657,497.31 110.47,349.71 121.39,321.54 132.98,291.62 100.93,278.1 87.043,306.39 Z" />
    </clipPath>
    <clipPath
       id="clipPath5130"
       clipPathUnits="userSpaceOnUse">
      <path
         inkscape:connector-curvature="0"
         id="path5132"
         style="fill:none;stroke:#f21944"
         d="m 513.18,245.01 -0.2,63.78 c -0.67,6.56 -10.05,9.47 -19.68,9.22 l -103.38,-0.32 c 5.49,37.16 17.33,80.16 -4.89,125.7 L 250.29,719.53 c -2.98,6.12 -5.22,11.88 -5.24,18.74 -0.07,20.13 16.19,36.52 36.32,36.58 14.78,0.05 27.9,-8.58 33.32,-21.36 L 442.91,450.67 c 19.9,-46.99 66.27,-65.53 100.96,-96.94 22.96,-20.78 3.38,-98.39 -30.69,-108.72 z m -59.62,98.75 c 3.89,0.01 7.01,3.17 7.01,7.06 l -0.05,47.21 c -0.01,3.89 -3.14,7.02 -7.03,7.01 L 418.09,405 c -3.89,-0.01 -7.02,-3.17 -7.01,-7.06 l 0.05,-47.22 c 0.01,-3.89 3.14,-7.01 7.02,-7.01 z M 283.01,708.2 c 15.51,0.05 28.03,12.65 27.98,28.15 -0.05,15.5 -12.65,28.05 -28.15,28.01 -15.5,-0.05 -28.06,-12.68 -28.01,-28.19 0.05,-15.5 12.68,-28.02 28.18,-27.97 z" />
    </clipPath>
    <clipPath
       id="clipPath5259"
       clipPathUnits="userSpaceOnUse">
      <path
         inkscape:connector-curvature="0"
         id="path5261"
         style="fill:none;stroke:#ffffff;stroke-width:2"
         d="m 407.31,251.56 c -13.17,2.47 -22.13,13.46 -27.64,24.92 -13.58,22.73 -26.25,46.19 -42.79,66.86 6.32,1.35 13.85,-0.71 20.56,0.54 10.96,1.43 18.91,-7.68 28.21,-11.9 7.52,-4.36 15.05,-8.72 22.57,-13.07 -3.78,-4.42 -2.94,-10.42 -1.25,-15.35 0.85,-17.26 0.26,-34.98 0.34,-52 z" />
    </clipPath>
  </defs>
  <sodipodi:namedview
     pagecolor="#ffffff"
     bordercolor="#666666"
     borderopacity="1"
     objecttolerance="10"
     gridtolerance="10"
     guidetolerance="10"
     inkscape:pageopacity="0"
     inkscape:pageshadow="2"
     inkscape:window-width="1152"
     inkscape:window-height="827"
     id="namedview10"
     showgrid="false"
     showguides="false"
     inkscape:zoom="0.13369409"
     inkscape:cx="443.89044"
     inkscape:cy="-369.07531"
     inkscape:window-x="1024"
     inkscape:window-y="0"
     inkscape:window-maximized="1"
     inkscape:current-layer="svg2" />
  <metadata
     id="metadata7">
    <rdf:RDF>
      <cc:Work>
        <dc:format>image/svg+xml</dc:format>
        <dc:type
           rdf:resource="http://purl.org/dc/dcmitype/StillImage" />
        <cc:license
           rdf:resource="http://creativecommons.org/publicdomain/zero/1.0/" />
        <dc:publisher>
          <cc:Agent
             rdf:about="http://openclipart.org/">
            <dc:title>Openclipart</dc:title>
          </cc:Agent>
        </dc:publisher>
        <dc:title>Low tech power</dc:title>
        <dc:date></dc:date>
        <dc:description></dc:description>
        <dc:source>https://laboussole.coop</dc:source>
        <dc:creator>
          <cc:Agent>
            <dc:title>YBSLE</dc:title>
          </cc:Agent>
        </dc:creator>
        <dc:subject>
          <rdf:Bag>
            <rdf:li>ecology</rdf:li>
            <rdf:li>fight</rdf:li>
            <rdf:li>fist</rdf:li>
            <rdf:li>green power</rdf:li>
            <rdf:li>low tech</rdf:li>
            <rdf:li>icon</rdf:li>
          </rdf:Bag>
        </dc:subject>
      </cc:Work>
      <cc:License
         rdf:about="http://creativecommons.org/publicdomain/zero/1.0/">
        <cc:permits
           rdf:resource="http://creativecommons.org/ns#Reproduction" />
        <cc:permits
           rdf:resource="http://creativecommons.org/ns#Distribution" />
        <cc:permits
           rdf:resource="http://creativecommons.org/ns#DerivativeWorks" />
      </cc:License>
    </rdf:RDF>
  </metadata>
  <g
     id="g4554"
     inkscape:export-xdpi="19.200001"
     inkscape:export-ydpi="19.200001"
     transform="translate(0,236.37601)">
    <rect
       inkscape:export-ydpi="13.147357"
       inkscape:export-xdpi="13.147357"
       y="-236.37601"
       x="2.414245e-06"
       height="600"
       width="600"
       id="rect4652"
       style="opacity:1;fill:#ffffff;fill-opacity:1;fill-rule:nonzero;stroke:none;stroke-width:2.00940108;stroke-linecap:square;stroke-linejoin:miter;stroke-miterlimit:4;stroke-dasharray:none;stroke-dashoffset:0;stroke-opacity:1;paint-order:markers stroke fill" />
    <g
       inkscape:export-ydpi="13.22"
       inkscape:export-xdpi="13.22"
       transform="matrix(1.617891,0.42420156,-0.43320365,1.5495725,122.50401,-388.87722)"
       style="display:inline;fill:#5eb28f;fill-opacity:1"
       inkscape:label="02"
       id="layer2-6">
      <path
         sodipodi:nodetypes="cccsccccccccccccccccccccccc"
         inkscape:connector-curvature="0"
         id="path3650"
         style="fill:#5eb28f;fill-opacity:1;stroke-width:1.01308644"
         d="m 336.30852,241.55544 c -20.03198,-1.10347 -27.3058,19.19059 -40.28862,20.87184 -77.19788,0.0612 -154.39576,0.12778 -231.593639,0.19249 -6.958584,-0.17891 -14.057294,-3.84898 -18.541295,-6.99835 -7.609512,-5.34459 -15.69548,-8.65191 -23.501787,-7.56375 -12.250239,2.44863 -21.2738016,12.56633 -23.5866774,24.82467 -0.2355403,1.2461 0.1878871,2.52259 1.12088038,3.38371 0.93294891,0.87125 2.24408722,1.18531 3.46991992,0.851 6.3543797,-1.80132 12.7815581,-2.80699 19.2499681,-4.12281 4.178748,2.47237 6.009507,11.58129 4.968878,16.15828 -6.700013,1.75979 -13.365507,3.58484 -20.0722947,5.37949 -1.2003008,0.32419 -2.1579733,1.22584 -2.5471001,2.41115 -0.3892253,1.17517 -0.1575345,2.47193 0.6161597,3.44449 8.4325401,8.65665 17.1714821,12.94901 28.8392131,10.9418 5.167,-1.28397 10.147232,-3.61218 13.361902,-6.63619 5.723939,-5.07555 11.450919,-10.47531 17.507149,-10.92107 77.527303,-0.24644 155.055493,0.19249 232.582403,0.19249 18.89432,4.29081 22.59183,20.805 45.17353,17.25287 13.05898,-3.49914 23.49526,-15.84416 25.86411,-27.16085 0.23301,-1.2461 -0.19248,-2.53272 -1.12452,-3.39384 -0.93204,-0.86113 -2.23893,-1.18532 -3.46476,-0.851 -7.06873,1.89317 -14.3003,3.12738 -21.4673,4.58928 -6.29612,-4.00821 -8.76521,-13.1458 -5.54158,-18.68131 7.43183,-1.93033 14.79494,-3.95129 22.22711,-5.94682 2.53237,-0.98347 3.45409,-3.86209 1.935,-5.85767 -0.30393,-0.37586 -0.58759,-0.67573 -0.83073,-0.95028 -10.03305,-7.90925 -14.54946,-10.9825 -24.35592,-11.40962 z" />
    </g>
    <rect
       inkscape:export-ydpi="13.22"
       inkscape:export-xdpi="13.22"
       transform="matrix(0.99883331,0.048291,-0.04668395,0.99890971,0,0)"
       y="61.896149"
       x="169.42342"
       height="91.228096"
       width="217.04781"
       id="rect4562"
       style="opacity:1;fill:#ffffff;fill-opacity:1;fill-rule:nonzero;stroke:none;stroke-width:2.02059364;stroke-linecap:square;stroke-linejoin:miter;stroke-miterlimit:4;stroke-dasharray:none;stroke-dashoffset:0;stroke-opacity:1;paint-order:markers stroke fill" />
    <rect
       inkscape:export-ydpi="13.22"
       inkscape:export-xdpi="13.22"
       transform="matrix(0.99883331,0.048291,-0.04668395,0.99890971,0,0)"
       y="85.773621"
       x="162.28755"
       height="21.123512"
       width="17.128477"
       id="rect4564"
       style="opacity:1;fill:#ffffff;fill-opacity:1;fill-rule:nonzero;stroke:none;stroke-width:2.87684393;stroke-linecap:square;stroke-linejoin:miter;stroke-miterlimit:4;stroke-dasharray:none;stroke-dashoffset:0;stroke-opacity:1;paint-order:markers stroke fill" />
    <rect
       inkscape:export-ydpi="13.22"
       inkscape:export-xdpi="13.22"
       transform="matrix(0.99883331,0.048291,-0.04668395,0.99890971,0,0)"
       y="72.232346"
       x="166.05492"
       height="19.966944"
       width="17.723917"
       id="rect4566"
       style="opacity:1;fill:#ffffff;fill-opacity:1;fill-rule:nonzero;stroke:none;stroke-width:1.68849313;stroke-linecap:square;stroke-linejoin:miter;stroke-miterlimit:4;stroke-dasharray:none;stroke-dashoffset:0;stroke-opacity:1;paint-order:markers stroke fill" />
    <rect
       inkscape:export-ydpi="13.22"
       inkscape:export-xdpi="13.22"
       transform="matrix(0.99883331,0.048291,-0.04668395,0.99890971,0,0)"
       y="80.829216"
       x="162.51012"
       height="5.5463729"
       width="6.5442157"
       id="rect4568"
       style="opacity:1;fill:#ffffff;fill-opacity:1;fill-rule:nonzero;stroke:none;stroke-width:1.68849313;stroke-linecap:square;stroke-linejoin:miter;stroke-miterlimit:4;stroke-dasharray:none;stroke-dashoffset:0;stroke-opacity:1;paint-order:markers stroke fill" />
    <rect
       inkscape:export-ydpi="13.22"
       inkscape:export-xdpi="13.22"
       transform="matrix(0.99883331,0.048291,-0.04668395,0.99890971,0,0)"
       y="78.056038"
       x="163.60083"
       height="8.0422411"
       width="9.5436478"
       id="rect4570"
       style="opacity:1;fill:#ffffff;fill-opacity:1;fill-rule:nonzero;stroke:none;stroke-width:1.68849313;stroke-linecap:square;stroke-linejoin:miter;stroke-miterlimit:4;stroke-dasharray:none;stroke-dashoffset:0;stroke-opacity:1;paint-order:markers stroke fill" />
    <rect
       inkscape:export-ydpi="13.22"
       inkscape:export-xdpi="13.22"
       transform="matrix(0.99883331,0.048291,-0.04668395,0.99890971,0,0)"
       y="85.773621"
       x="162.28755"
       height="6.4256721"
       width="3.7673559"
       id="rect4572"
       style="opacity:1;fill:#ffffff;fill-opacity:1;fill-rule:nonzero;stroke:none;stroke-width:1.68849313;stroke-linecap:square;stroke-linejoin:miter;stroke-miterlimit:4;stroke-dasharray:none;stroke-dashoffset:0;stroke-opacity:1;paint-order:markers stroke fill" />
    <g
       style="fill:#5eb28f;fill-opacity:1"
       inkscape:export-ydpi="13.22"
       inkscape:export-xdpi="13.22"
       transform="matrix(0.68398583,0.03306894,-0.0325128,0.69568564,92.00328,-43.328855)"
       id="layer2">
      <path
         inkscape:connector-curvature="0"
         style="color:#000000;fill:#5eb28f;fill-opacity:1"
         d="m 181.81,80.566 -26.522,39.932 1.0588,28.704 -40.189,8.1937 -16.16,43.59 10.589,80.174 -0.074,21.314 8.8406,34.849 88.159,72.447 22.926,32.749 -0.25855,73.264 0.45,44.22 h 19.36 l -6.51,-112.26 -11.89,-21.38 -14.727,-24.211 53.413,25.56 38.76,-27.796 28.171,-26.033 11.401,-16.776 38.884,7.8047 -20.488,25.463 13.051,25.307 -15.317,26.656 -15.391,-8.2974 7.7077,15.376 -55.358,-5.7305 36.23,116.32 h 97.68 l -6.1487,-95.78 14.923,-33.942 29.329,-73.847 13.101,-85.671 5.9101,-25.489 -10.441,-22.118 1.2314,-36.587 -17.459,-43.536 -36.396,-15.195 -17.706,10.579 -26.817,-28.211 -35.978,-2.3337 -9.0868,8.2714 -30.092,-27.77 -35.165,-4.7711 -24.995,24.452 -24.478,-27.33 -43.538,-0.15551 z m 3.7185,3.0338 3.9893,13.898 2.2655,11.928 -0.41868,15.324 -2.1916,12.343 -24.231,11.046 -3.7677,-28.393 z m 86.411,16.439 16.45,15.376 -13.199,35.575 7.3384,23.622 6.5257,43.536 -8.4465,14.443 -20.882,-15.687 -4.6788,-33.708 14.578,-42.836 -10.293,-20.536 z m 78.875,12.317 12.14,10.527 -16.007,24.763 12.313,59.067 20.685,-26.992 -14.504,52.637 -19.922,4.5896 -17.509,-12.576 12.165,-97.858 z m 75.896,22.559 -5.0975,20.666 1.773,15.765 11.131,28.548 -14.751,26.215 -16.77,3.3449 -10.416,-9.7755 23.148,-73.77 z m -305.02,29.228 13.334,4.8699 7.5846,24.737 3.0782,-25.67 42.922,-1.0631 -9.5547,22.948 -13.963,22.273 -22.286,0.38897 -16.868,14.054 14.751,-3.0856 12.387,19.369 -16.179,13.924 8.2496,12.654 21.99,-2.1521 -6.2056,26.215 17.755,-13.25 -8.3973,13.25 43.932,17.269 7.3138,-18.125 3.9893,41.539 38.99,-24.28 -5.8602,74.579 -47.409,9.4236 -88.43,-61.92 -7.9905,-29.49 1.1945,-27.509 -10.281,-83.411 z m 265.4,112.68 46.025,11.564 0.41858,12.887 -15.514,29.067 -18.124,7.0788 11.131,18.514 -39.45,-12.446 -16.376,-43.665 31.2,18.228 19.109,-17.814 z"
         id="path3867" />
    </g>
  </g>
</svg>
